<svg width="143" height="131" viewBox="0 0 143 131" fill="none" xmlns="http://www.w3.org/2000/svg">
<g clip-path="url(#clip0_2012_6420)">
<path d="M-84.0198 142.801L-84.0557 144.801C-84.7692 184.559 -53.1173 217.368 -13.3592 218.081C26.3989 218.795 59.2076 187.143 59.9212 147.385L59.9571 145.385C60.6706 105.627 29.0188 72.8181 -10.7393 72.1046C-50.4975 71.391 -83.3062 103.043 -84.0198 142.801Z" fill="#539933"/>
<path d="M-84.0198 142.801L-84.0557 144.801C-84.7692 184.559 -53.1173 217.368 -13.3592 218.081C26.3989 218.795 59.2076 187.143 59.9212 147.385L59.9571 145.385C60.6706 105.627 29.0188 72.8181 -10.7393 72.1046C-50.4975 71.391 -83.3062 103.043 -84.0198 142.801Z" stroke="#151515" stroke-width="8"/>
<path d="M-9.34164 -5.88281C-49.0997 -6.59636 -81.9085 25.0555 -82.6221 64.8136C-83.3356 104.572 -51.6838 137.38 -11.9257 138.094C27.8324 138.808 60.6412 107.156 61.3548 67.3976C62.0683 27.6395 30.4165 -5.16926 -9.34164 -5.88281Z" fill="#C7EEB4"/>
<path d="M-9.34164 -5.88281C-49.0997 -6.59636 -81.9085 25.0555 -82.6221 64.8136C-83.3356 104.572 -51.6838 137.38 -11.9257 138.094C27.8324 138.808 60.6412 107.156 61.3548 67.3976C62.0683 27.6395 30.4165 -5.16926 -9.34164 -5.88281Z" stroke="#151515" stroke-width="8"/>
<path d="M-81.1838 -15.1736L-81.2197 -13.174C-81.9333 26.5841 -50.2814 59.3929 -10.5233 60.1065C29.2348 60.82 62.0435 29.1682 62.7571 -10.5899L62.793 -12.5896C63.5065 -52.3477 31.8547 -85.1565 -7.90341 -85.87C-47.6615 -86.5836 -80.4703 -54.9317 -81.1838 -15.1736Z" fill="#539933"/>
<path d="M-81.1838 -15.1736L-81.2197 -13.174C-81.9333 26.5841 -50.2814 59.3929 -10.5233 60.1065C29.2348 60.82 62.0435 29.1682 62.7571 -10.5899L62.793 -12.5896C63.5065 -52.3477 31.8547 -85.1565 -7.90341 -85.87C-47.6615 -86.5836 -80.4703 -54.9317 -81.1838 -15.1736Z" stroke="#151515" stroke-width="8"/>
</g>
<defs>
<clipPath id="clip0_2012_6420">
<rect width="143" height="131" fill="white"/>
</clipPath>
</defs>
</svg>
