<svg width="44" height="56" viewBox="0 0 44 56" fill="none" xmlns="http://www.w3.org/2000/svg">
<path d="M15.75 2.91016H13.25V0.410156H15.75H18.25V2.91016H15.75ZM18.25 7.91016V10.4102V12.9102V15.4102V17.9102V20.4102V22.9102V25.4102H20.75V22.9102V20.4102H23.25H25.75V17.9102H23.25H20.75V15.4102V12.9102V10.4102V7.91016V5.41016V2.91016H18.25V5.41016V7.91016ZM33.25 20.4102V17.9102H30.75H28.25V20.4102H30.75H33.25ZM25.75 25.4102H28.25V22.9102V20.4102H25.75V22.9102V25.4102ZM40.75 25.4102V22.9102H38.25V25.4102H40.75ZM40.75 25.4102V27.9102V30.4102V32.9102V35.4102V37.9102V40.4102V42.9102H43.25V40.4102V37.9102V35.4102V32.9102V30.4102V27.9102V25.4102H40.75ZM38.25 45.4102V47.9102V50.4102H40.75V47.9102V45.4102V42.9102H38.25V45.4102ZM35.75 52.9102H33.25H30.75H28.25H25.75H23.25H20.75H18.25H15.75V50.4102H13.25V52.9102V55.4102H15.75H18.25H20.75H23.25H25.75H28.25H30.75H33.25H35.75H38.25V52.9102V50.4102H35.75V52.9102ZM33.25 25.4102H35.75V22.9102H38.25V20.4102H35.75H33.25V22.9102V25.4102ZM10.75 27.9102V30.4102V32.9102V35.4102H13.25V32.9102V30.4102V27.9102V25.4102V22.9102V20.4102V17.9102V15.4102V12.9102V10.4102V7.91016V5.41016V2.91016H10.75V5.41016V7.91016V10.4102V12.9102V15.4102V17.9102V20.4102V22.9102V25.4102H8.25V27.9102H10.75ZM3.25 25.4102H5.75H8.25V22.9102H5.75H3.25H0.75V25.4102V27.9102V30.4102H3.25V27.9102V25.4102ZM3.25 30.4102V32.9102H5.75V30.4102H3.25ZM8.25 32.9102H5.75V35.4102V37.9102H8.25V35.4102V32.9102ZM10.75 40.4102V37.9102H8.25V40.4102V42.9102V45.4102H10.75V42.9102V40.4102ZM13.25 45.4102H10.75V47.9102V50.4102H13.25V47.9102V45.4102Z" fill="#1D1D1B"/>
</svg>
