<svg width="141" height="32" viewBox="0 0 141 32" fill="none" xmlns="http://www.w3.org/2000/svg">
<path fill-rule="evenodd" clip-rule="evenodd" d="M11.5 2V3.75H6.25V2H11.5ZM6.25 5.5H4.5V3.75H6.25V5.5ZM4.5 10.75H2.75V5.5H4.5V10.75ZM4.5 12.5V10.75H6.25V12.5H4.5ZM4.5 12.5H2.75V14.25H1V17.75H2.75V19.5H4.5V21.25H6.25V23H2.75V24.75H1V28.25H2.75V30H8V28.25H9.75V30H11.5V28.25H13.25V30H18.5V28.25H20.25V30H22V28.25H23.75V30H29V28.25H30.75V24.75H29V23H25.5V21.25H27.25V19.5H29V17.75H30.75V14.25H29V12.5H27.25V10.75H29V5.5H27.25V3.75H25.5V2H20.25V3.75H18.5V5.5H13.25V3.75H11.5V5.5H13.25V7.25H18.5V5.5H20.25V3.75H25.5V5.5H22V9H25.5V5.5H27.25V10.75H25.5V12.5H27.25V14.25H29V17.75H27.25V19.5H22V21.25H23.75V23H25.5V26.5H27.25V24.75H29V28.25H23.75V26.5H22V28.25H20.25V26.5H18.5V28.25H13.25V26.5H11.5V28.25H9.75V26.5H8V28.25H2.75V24.75H4.5V26.5H6.25V23H8V21.25H9.75V19.5H4.5V17.75H2.75V14.25H4.5V12.5ZM6.25 5.5V9H9.75V5.5H6.25ZM8 14.25V16H6.25V14.25H8ZM23.75 16V17.75H8V16H23.75ZM23.75 16H25.5V14.25H23.75V16Z" fill="black"/>
<path fill-rule="evenodd" clip-rule="evenodd" d="M11.5 3.75V5.5H13.25V10.75H11.5V12.5H6.25V10.75H4.5V5.5H6.25V9H9.75V5.5H6.25V3.75H11.5ZM25.5 3.75V5.5H22V9H25.5V5.5H27.25V10.75H25.5V12.5H20.25V10.75H18.5V5.5H20.25V3.75H25.5ZM16.75 23V24.75H18.5V28.25H13.25V24.75H15V23H16.75Z" fill="white"/>
<path fill-rule="evenodd" clip-rule="evenodd" d="M18.5 7.25V10.75H20.25V12.5H27.25V14.25H29V17.75H27.25V19.5H22V21.25H23.75V23H25.5V26.5H27.25V24.75H29V28.25H23.75V26.5H22V28.25H20.25V26.5H18.5V24.75H16.75V23H15V24.75H13.25V26.5H11.5V28.25H9.75V26.5H8V28.25H2.75V24.75H4.5V26.5H6.25V23H8V21.25H9.75V19.5H4.5V17.75H2.75V14.25H4.5V12.5H11.5V10.75H13.25V7.25H18.5ZM8 14.25H6.25V16H8V17.75H23.75V16H25.5V14.25H23.75V16H8V14.25Z" fill="#92CC41"/>
<path d="M42 21.25V9H54.25V10.75H45.5V14.25H52.5V16H45.5V21.25H42Z" fill="black"/>
<path d="M61.25 14.25H63V16H61.25V21.25H57.75V12.5H61.25V14.25ZM68.25 12.5V14.25H63V12.5H68.25Z" fill="black"/>
<path d="M71.75 21.25V19.5H70V14.25H71.75V12.5H80.5V14.25H82.25V19.5H80.5V21.25H71.75ZM73.5 19.5H78.75V14.25H73.5V19.5Z" fill="black"/>
<path d="M85.75 23V21.25H92.75V19.5H85.75V17.75H84V14.25H85.75V12.5H96.25V21.25H94.5V23H85.75ZM87.5 17.75H92.75V14.25H87.5V17.75Z" fill="black"/>
<path d="M98 21.25V19.5H106.75V17.75H99.75V16H98V14.25H99.75V12.5H108.5V14.25H101.5V16H108.5V17.75H110.25V19.5H108.5V21.25H98Z" fill="black"/>
<path d="M112 21.25V9H124.25V10.75H115.5V14.25H122.5V16H115.5V21.25H112Z" fill="black"/>
<path d="M131.25 10.75V9H134.75V10.75H131.25ZM127.75 21.25V19.5H131.25V14.25H129.5V12.5H134.75V19.5H138.25V21.25H127.75Z" fill="black"/>
</svg>
