<svg width="143" height="131" viewBox="0 0 143 131" fill="none" xmlns="http://www.w3.org/2000/svg">
<g clip-path="url(#clip0_2012_6413)">
<path d="M227.02 119.801L227.056 121.801C227.769 161.559 196.117 194.368 156.359 195.081C116.601 195.795 83.7924 164.143 83.0789 124.385L83.043 122.385C82.3294 82.6268 113.981 49.8181 153.739 49.1045C193.497 48.391 226.306 80.0429 227.02 119.801Z" fill="#539933"/>
<path d="M227.02 119.801L227.056 121.801C227.769 161.559 196.117 194.368 156.359 195.081C116.601 195.795 83.7924 164.143 83.0789 124.385L83.043 122.385C82.3294 82.6268 113.981 49.8181 153.739 49.1045C193.497 48.391 226.306 80.0429 227.02 119.801Z" stroke="#151515" stroke-width="8"/>
<path d="M152.338 -28.8828C192.096 -29.5964 224.905 2.05549 225.618 41.8136C226.332 81.5717 194.68 114.38 154.922 115.094C115.164 115.808 82.3549 84.1557 81.6414 44.3976C80.9278 4.63946 112.58 -28.1693 152.338 -28.8828Z" fill="#91DA6C"/>
<path d="M152.338 -28.8828C192.096 -29.5964 224.905 2.05549 225.618 41.8136C226.332 81.5717 194.68 114.38 154.922 115.094C115.164 115.808 82.3549 84.1557 81.6414 44.3976C80.9278 4.63946 112.58 -28.1693 152.338 -28.8828Z" stroke="#151515" stroke-width="8"/>
<path d="M224.184 -38.1734L224.22 -36.1737C224.933 3.58439 193.281 36.3931 153.523 37.1067C113.765 37.8202 80.9565 6.16836 80.2429 -33.5897L80.207 -35.5894C79.4935 -75.3475 111.145 -108.156 150.903 -108.87C190.662 -109.583 223.47 -77.9315 224.184 -38.1734Z" fill="#C7EEB4"/>
<path d="M224.184 -38.1734L224.22 -36.1737C224.933 3.58439 193.281 36.3931 153.523 37.1067C113.765 37.8202 80.9565 6.16836 80.2429 -33.5897L80.207 -35.5894C79.4935 -75.3475 111.145 -108.156 150.903 -108.87C190.662 -109.583 223.47 -77.9315 224.184 -38.1734Z" stroke="#151515" stroke-width="8"/>
</g>
<defs>
<clipPath id="clip0_2012_6413">
<rect width="143" height="131" fill="white"/>
</clipPath>
</defs>
</svg>
